# xmcd
#
# Track frame offsets:
#	150
#	15113
#	27674
#	54453
#	75140
#	87640
#	115375
#	128989
#	149636
#
# Disc length: 2320 seconds
#
# Revision: 0
# Processed by: cddbd v1.4b42PL1 Copyright (c) Steve Scherf et al.
# Submitted via: EZCDDA 4.3.3.2
#
DISCID=72090e09
DTITLE=Mary Beth - Snowed In
DYEAR=1900
DGENRE=
TTITLE0=Snowed In
TTITLE1=Times Like These
TTITLE2=Wait For Me
TTITLE3=Simpatico
TTITLE4=All I Want Is You
TTITLE5=Since You've Gone
TTITLE6=Who At My Door Is Standing
TTITLE7=Candlelight and Mistletoe
TTITLE8=New Year's Eve Surprise
EXTD=
EXTT0=
EXTT1=
EXTT2=
EXTT3=
EXTT4=
EXTT5=
EXTT6=
EXTT7=
EXTT8=
PLAYORDER=
